<?xml version="1.0" standalone="no"?>
<!DOCTYPE svg PUBLIC "-//W3C//DTD SVG 20010904//EN"
 "http://www.w3.org/TR/2001/REC-SVG-20010904/DTD/svg10.dtd">
<svg version="1.0" xmlns="http://www.w3.org/2000/svg"
 width="204.000000pt" height="204.000000pt" viewBox="0 0 204.000000 204.000000"
 preserveAspectRatio="xMidYMid meet">

<g transform="translate(0.000000,204.000000) scale(0.100000,-0.100000)"
fill="#000000" stroke="none">
<path d="M918 1983 c7 -3 16 -2 19 1 4 3 -2 6 -13 5 -11 0 -14 -3 -6 -6z"/>
<path d="M1168 1983 c6 -2 18 -2 25 0 6 3 1 5 -13 5 -14 0 -19 -2 -12 -5z"/>
<path d="M1248 1973 c7 -3 16 -2 19 1 4 3 -2 6 -13 5 -11 0 -14 -3 -6 -6z"/>
<path d="M879 1949 c-172 -25 -351 -92 -504 -188 -53 -33 -100 -61 -103 -61
-3 0 7 14 24 32 24 26 19 24 -28 -13 -32 -24 -58 -46 -58 -50 0 -3 11 -16 25
-29 14 -13 25 -27 25 -30 0 -4 -18 -15 -40 -25 -22 -10 -38 -20 -36 -22 2 -3
22 5 45 16 l41 21 31 -42 c17 -24 39 -60 50 -80 10 -20 23 -40 29 -43 6 -4 42
12 80 35 38 23 75 40 82 38 37 -13 -275 -197 -342 -203 -28 -2 -68 -25 -44
-25 24 0 215 70 279 103 65 32 71 33 72 16 1 -10 -2 -19 -7 -19 -8 0 -72 -127
-85 -171 -4 -13 -12 -27 -16 -30 -27 -17 -34 -203 -14 -358 3 -24 -1 -41 -13
-54 -16 -19 -16 -20 5 -9 12 7 23 17 26 24 3 8 7 6 12 -7 4 -11 21 -49 38 -85
17 -36 32 -68 32 -72 0 -4 10 -15 22 -23 13 -9 23 -25 23 -36 0 -10 13 -27 28
-37 55 -34 108 -87 104 -104 -2 -10 -9 -18 -16 -18 -18 0 -97 70 -90 81 3 5 1
9 -5 9 -6 0 -18 -15 -27 -32 -9 -18 -27 -48 -41 -66 -19 -26 -28 -30 -42 -22
-45 24 -121 49 -125 41 -3 -5 21 -18 54 -30 65 -24 81 -39 57 -52 -28 -16 -6
-49 67 -101 157 -112 318 -167 514 -175 187 -9 314 17 477 98 92 45 196 120
207 149 5 13 -14 3 -55 -31 -77 -62 -237 -142 -342 -171 -67 -18 -107 -22
-245 -22 -189 -1 -261 14 -405 84 -82 40 -200 118 -191 127 3 3 38 -15 78 -40
144 -90 306 -143 474 -154 208 -14 434 53 602 179 l53 39 -33 37 c-18 21 -40
48 -49 62 l-16 24 -51 -37 c-70 -52 -203 -112 -289 -131 -194 -43 -451 1 -581
100 -35 27 -38 43 -4 25 16 -8 21 -6 31 15 l11 26 44 -26 c78 -45 193 -78 296
-83 120 -6 216 13 326 66 77 37 81 38 92 20 7 -11 18 -19 25 -19 8 0 8 3 -2 9
-29 19 -17 40 50 91 42 32 69 60 69 71 0 10 11 26 25 35 14 9 24 19 21 21 -3
3 8 30 24 62 16 31 34 69 40 85 10 26 12 27 23 12 15 -20 14 -27 19 219 2 116
0 145 -14 170 -16 28 -88 184 -90 195 -1 3 -6 10 -13 15 -13 11 -28 45 -19 45
2 0 31 -13 64 -30 72 -36 206 -90 223 -90 6 1 -13 11 -43 24 -91 38 -280 158
-280 177 0 17 25 9 83 -26 32 -19 66 -35 75 -35 10 0 28 21 46 56 16 30 42 69
58 86 16 17 27 33 24 35 -6 6 -63 -66 -87 -113 l-23 -42 -63 49 c-80 61 -99
72 -101 56 -1 -16 -27 -85 -35 -93 -3 -4 -30 14 -59 40 -109 96 -260 149 -423
149 -161 0 -291 -45 -420 -144 -35 -27 -67 -49 -70 -49 -3 0 -5 10 -5 23 0 12
-7 33 -17 46 -18 26 -20 22 34 59 10 7 -6 1 -35 -13 -75 -37 -86 -26 -19 18
68 45 167 88 273 119 70 20 100 23 259 22 167 0 187 -2 270 -28 118 -36 233
-92 326 -159 l76 -54 20 36 c12 20 40 58 63 84 49 55 56 43 -68 128 -142 98
-304 162 -486 194 -94 16 -283 18 -377 4z m115 -56 c10 -63 7 -113 -6 -113 -7
0 -28 17 -46 37 l-33 38 6 -37 c3 -22 1 -39 -6 -43 -18 -12 -26 7 -34 78 -6
61 -5 67 12 67 10 -1 30 -17 46 -37 l27 -36 0 41 c0 55 25 58 34 5z m76 12 c0
-18 5 -25 20 -25 15 0 20 7 20 25 0 16 6 25 15 25 12 0 15 -15 15 -75 0 -60
-3 -75 -15 -75 -10 0 -15 11 -15 35 0 28 -4 35 -19 35 -15 0 -21 -8 -23 -32
-2 -21 -8 -33 -18 -33 -16 0 -26 79 -15 122 8 31 35 30 35 -2z m235 -10 c45
-44 22 -115 -41 -131 -68 -17 -115 90 -58 135 35 28 69 27 99 -4z m-467 -3 c2
-6 -8 -14 -22 -18 -35 -8 -33 -26 2 -22 34 4 38 -25 4 -30 -32 -5 -21 -27 12
-25 20 1 26 -3 26 -18 0 -10 -4 -19 -9 -19 -5 0 -22 -3 -39 -6 -31 -6 -31 -6
-44 57 -17 85 -17 83 17 90 37 8 48 6 53 -9z m572 -20 c0 -5 -7 -30 -16 -56
-9 -26 -14 -50 -11 -53 14 -14 35 9 47 51 11 42 27 56 42 40 9 -8 -22 -95 -40
-116 -8 -10 -22 -18 -30 -18 -24 0 -52 31 -52 56 0 36 30 104 46 104 8 0 14
-4 14 -8z m-707 -56 c15 -45 21 -53 37 -49 33 9 24 -24 -10 -36 -23 -8 -32 -7
-35 2 -27 74 -42 126 -38 131 16 16 31 1 46 -48z m-90 -36 c18 -43 24 -49 44
-44 35 9 29 -21 -7 -36 -17 -7 -32 -11 -34 -9 -5 5 -56 127 -56 134 0 3 7 5
16 5 9 0 24 -20 37 -50z m952 30 c15 -16 16 -23 6 -33 -9 -9 -14 -9 -21 3 -14
23 -22 5 -9 -23 6 -14 9 -37 5 -51 -11 -45 -86 -31 -86 16 0 23 19 23 36 1 19
-27 24 -13 11 34 -17 64 19 96 58 53z m-1024 -79 c56 -47 64 -70 19 -56 -26 8
-58 -10 -62 -37 -2 -12 -8 -23 -14 -25 -16 -5 -35 149 -20 159 16 11 13 13 77
-41z m1124 28 c29 -17 33 -24 24 -36 -9 -9 -15 -11 -23 -3 -5 5 -17 10 -25 10
-12 -1 -9 -6 8 -21 30 -24 16 -48 -17 -30 -30 16 -41 -7 -13 -29 18 -13 20
-18 9 -27 -10 -8 -21 -5 -45 11 l-32 22 37 62 c20 34 37 62 39 62 1 0 18 -10
38 -21z m-471 -124 c183 -39 359 -176 444 -345 97 -194 95 -410 -5 -603 -53
-103 -182 -231 -283 -279 -118 -57 -185 -71 -325 -66 -96 4 -133 10 -187 30
-194 73 -341 222 -410 418 -31 88 -33 305 -4 390 60 176 184 324 336 399 139
68 286 87 434 56z m481 -142 c22 -18 37 -35 34 -37 -3 -3 -31 10 -62 29 -32
19 -62 35 -68 35 -11 0 -11 3 -3 24 6 15 9 15 34 -1 15 -10 44 -33 65 -50z
m-1137 40 c2 -7 -3 -13 -10 -13 -8 0 -36 -14 -62 -30 -69 -44 -80 -31 -15 18
54 42 78 49 87 25z m80 -1205 c19 -19 14 -30 -8 -18 -25 13 -26 2 -2 -17 16
-13 15 -14 -5 -10 -23 5 -31 -7 -13 -18 21 -13 9 -24 -15 -13 -30 13 -30 17
-7 57 18 33 31 38 50 19z m909 -24 c34 -26 36 -39 5 -39 -9 0 -16 -6 -14 -12
2 -14 -14 -18 -22 -5 -9 15 -18 82 -11 82 5 0 23 -12 42 -26z m-837 -19 c7 -9
9 -19 5 -23 -4 -4 -10 -1 -12 6 -3 6 -9 12 -14 12 -5 0 -4 -8 2 -19 14 -22 6
-51 -15 -51 -19 0 -40 36 -27 45 6 3 14 -3 20 -12 6 -10 11 -13 11 -7 0 5 -5
15 -11 21 -14 14 -5 43 14 43 8 0 20 -7 27 -15z m765 -15 c20 -38 19 -47 -5
-60 -17 -9 -23 -6 -40 22 -22 36 -25 48 -12 48 5 0 14 -11 20 -25 16 -34 35
-33 22 1 -19 50 -9 60 15 14z m-695 -10 c13 -9 13 -12 -1 -20 -9 -5 -20 -21
-23 -35 -4 -14 -11 -25 -17 -25 -6 0 -7 9 -3 23 5 12 8 32 7 45 -1 24 13 28
37 12z m620 0 c0 -5 -5 -10 -11 -10 -6 0 -9 -6 -6 -12 15 -42 17 -58 8 -58 -6
0 -13 11 -17 25 -3 14 -14 29 -23 34 -14 8 -13 11 9 20 33 13 40 13 40 1z
m-535 -40 c6 -18 -16 -70 -29 -70 -31 0 -45 35 -30 74 9 24 51 20 59 -4z m465
15 c0 -3 -10 -10 -22 -15 l-23 -9 23 0 c24 -1 31 -21 7 -21 -8 0 -15 -5 -15
-11 0 -6 9 -8 20 -4 11 3 20 2 20 -4 0 -12 -36 -25 -49 -17 -11 7 -23 65 -15
77 5 10 54 13 54 4z m-322 -49 c2 -11 -4 -19 -17 -23 -12 -3 -21 -12 -21 -19
0 -8 -4 -14 -10 -14 -11 0 -14 73 -4 83 10 10 49 -10 52 -27z m242 10 c0 -13
-7 -26 -15 -30 -8 -3 -15 -13 -15 -23 0 -29 -17 0 -23 40 -6 36 -5 37 24 37
24 0 29 -4 29 -24z m-160 4 c0 -5 -10 -11 -22 -11 -17 -1 -19 -2 -5 -6 21 -5
23 -23 2 -23 -8 0 -15 -4 -15 -10 0 -5 9 -10 20 -10 11 0 20 -4 20 -10 0 -5
-13 -10 -30 -10 -29 0 -30 2 -30 45 0 43 1 45 30 45 17 0 30 -4 30 -10z m78
-18 c-1 -15 1 -33 6 -40 11 -18 -4 -15 -27 5 -17 16 -19 17 -16 1 2 -9 0 -18
-6 -20 -5 -2 -11 16 -13 40 -3 41 -2 42 28 42 27 0 30 -3 28 -28z"/>
<path d="M1226 1874 c-31 -31 -13 -74 31 -74 43 0 52 59 12 80 -23 13 -25 13
-43 -6z"/>
<path d="M490 1715 c0 -8 7 -15 16 -15 14 0 14 3 4 15 -7 8 -14 15 -16 15 -2
0 -4 -7 -4 -15z"/>
<path d="M1019 1605 c17 -33 31 -51 31 -40 0 6 -10 21 -21 35 -13 17 -17 18
-10 5z"/>
<path d="M960 1606 c0 -2 8 -10 18 -17 15 -13 16 -12 3 4 -13 16 -21 21 -21
13z"/>
<path d="M850 1586 c0 -2 8 -10 18 -17 15 -13 16 -12 3 4 -13 16 -21 21 -21
13z"/>
<path d="M931 1573 c7 -12 15 -20 18 -17 3 2 -3 12 -13 22 -17 16 -18 16 -5
-5z"/>
<path d="M1086 1577 c3 -10 9 -15 12 -12 3 3 0 11 -7 18 -10 9 -11 8 -5 -6z"/>
<path d="M1281 1544 c0 -11 3 -14 6 -6 3 7 2 16 -1 19 -3 4 -6 -2 -5 -13z"/>
<path d="M836 1537 c3 -10 9 -15 12 -12 3 3 0 11 -7 18 -10 9 -11 8 -5 -6z"/>
<path d="M1230 1540 c-13 -8 -12 -10 3 -10 9 0 17 5 17 10 0 12 -1 12 -20 0z"/>
<path d="M923 1505 c-91 -25 -174 -74 -243 -144 -103 -104 -150 -218 -150
-366 0 -150 50 -274 152 -375 164 -162 412 -199 623 -93 74 38 185 154 222
233 144 305 -20 661 -342 745 -73 18 -192 18 -262 0z m115 -97 c3 -16 -23 -48
-39 -48 -5 0 -9 10 -9 23 0 41 41 62 48 25z m97 -19 c4 -10 2 -26 -3 -35 -8
-15 -11 -14 -26 8 -18 28 -12 60 9 51 8 -2 17 -13 20 -24z m-170 -19 c0 -36
-29 -33 -33 3 -3 23 0 28 15 25 12 -2 18 -12 18 -28z m113 8 c16 -16 15 -48
-1 -48 -19 0 -37 21 -37 42 0 21 20 24 38 6z m146 -45 c-15 -11 -20 -11 -28 4
-7 12 -3 21 15 36 l24 19 3 -23 c3 -14 -3 -28 -14 -36z m-320 5 c8 -12 13 -25
10 -30 -12 -19 -74 18 -74 44 0 17 50 7 64 -14z m104 -15 c-4 -32 -38 -46 -38
-16 0 20 18 43 33 43 4 0 7 -12 5 -27z m170 4 c2 -10 -3 -17 -12 -17 -10 0
-16 9 -16 21 0 24 23 21 28 -4z m162 -1 c0 -15 -37 -32 -47 -22 -9 8 17 36 33
36 8 0 14 -6 14 -14z m-542 -8 c14 -14 16 -48 3 -48 -15 0 -41 30 -41 46 0 17
22 18 38 2z m333 -9 c8 -15 8 -24 0 -32 -15 -15 -44 14 -35 36 8 23 21 21 35
-4z m149 6 c0 -21 -48 -51 -61 -38 -17 17 8 53 36 53 15 0 25 -6 25 -15z
m-416 -31 c18 -17 21 -44 6 -44 -16 0 -51 40 -45 50 9 14 21 12 39 -6z m104
-37 l12 -32 -4 30 -5 30 13 -30 c20 -44 30 -94 15 -75 -9 12 -10 11 -4 -5 4
-11 10 -29 13 -39 4 -15 7 -12 16 15 15 46 47 47 62 1 l10 -33 29 83 c32 95
35 100 53 89 13 -8 5 -51 -26 -141 -3 -8 19 8 49 36 93 88 118 76 38 -18 -85
-101 -83 -96 -44 -84 25 8 30 12 18 17 -31 11 56 54 109 54 l47 0 -63 -32
c-51 -26 -63 -36 -59 -51 3 -13 -5 -27 -23 -41 -18 -14 -22 -21 -11 -21 8 0
24 11 34 25 22 30 93 48 93 23 0 -9 -16 -19 -42 -26 -33 -9 -35 -10 -8 -6 114
18 112 18 109 -1 -3 -12 -28 -23 -94 -40 -160 -42 -180 -49 -182 -70 -2 -11 0
-14 3 -7 5 10 9 10 20 1 19 -15 18 -33 -1 -25 -8 3 -15 1 -15 -4 0 -13 -42
-17 -62 -6 -11 7 -21 6 -33 -4 -35 -29 16 -26 136 7 136 37 137 37 149 67 6
13 8 -22 7 -99 l-2 -120 -120 -33 c-86 -23 -125 -38 -136 -54 l-17 -21 -11 21
c-6 12 -28 26 -49 32 -46 12 -55 13 -48 1 10 -16 -5 -41 -25 -41 -22 0 -25 23
-5 43 12 12 4 16 -55 32 -38 9 -72 22 -76 28 -7 11 -11 217 -5 217 2 0 11 -9
20 -20 17 -20 198 -77 210 -66 3 3 -2 6 -11 6 -10 0 -17 8 -18 18 0 10 -3 12
-6 5 -5 -15 -33 -18 -33 -4 0 14 28 33 40 26 5 -3 10 -2 10 3 0 20 -32 21 -52
2 -22 -20 -58 -26 -72 -13 -4 4 12 14 35 23 l42 17 -83 22 c-45 13 -98 25
-116 28 -25 4 -34 11 -34 25 0 18 5 20 48 15 26 -3 38 -3 27 0 -35 9 -38 21
-8 27 38 9 80 -7 88 -33 4 -13 15 -21 28 -20 l22 0 -22 11 c-24 12 -38 41 -28
58 12 19 53 10 74 -16 16 -21 18 -30 10 -40 -8 -10 -8 -14 0 -14 6 0 11 6 11
13 0 8 4 7 10 -3 5 -8 10 -11 10 -7 0 14 -57 92 -108 148 -50 55 -63 90 -31
82 9 -3 38 -29 64 -59 26 -31 49 -54 51 -51 2 2 -6 36 -17 76 -17 60 -18 75
-8 82 16 10 21 6 37 -34z m350 31 c-5 -15 -48 -24 -48 -10 0 14 12 22 33 22
10 0 17 -5 15 -12z m-537 -18 c29 -16 24 -40 -10 -40 -38 0 -59 24 -34 39 23
13 21 13 44 1z m450 -38 c-48 -61 -69 -73 -26 -14 22 28 43 52 48 52 5 0 -5
-17 -22 -38z m144 24 c18 -13 18 -14 -4 -25 -25 -14 -61 -6 -61 14 0 25 37 31
65 11z m-256 -45 c-7 -23 -14 -39 -16 -37 -3 2 1 23 8 45 7 23 14 39 16 37 3
-2 -1 -23 -8 -45z m-204 -7 c37 -49 27 -52 -13 -3 -18 21 -29 39 -24 39 5 0
22 -16 37 -36z m-157 4 c-5 -16 -48 -24 -48 -10 0 11 17 20 38 21 8 1 12 -5
10 -11z m667 -18 c0 -9 -11 -16 -27 -18 -30 -4 -36 6 -16 26 16 16 43 11 43
-8z m-608 -6 c2 -6 -4 -14 -13 -18 -19 -7 -47 11 -38 26 8 12 46 6 51 -8z
m528 -4 c0 -8 -7 -16 -15 -17 -22 -4 -44 13 -35 26 10 17 50 9 50 -9z m-647
-22 c16 -16 15 -38 -1 -38 -18 0 -49 34 -40 43 10 11 28 8 41 -5z m177 -28
c38 -24 39 -24 15 -31 -24 -5 -111 29 -123 48 -12 19 71 6 108 -17z m-105 -10
c15 -28 2 -52 -20 -40 -21 11 -35 44 -25 59 8 14 33 3 45 -19z m-113 4 c2 -6
-4 -14 -13 -18 -19 -7 -47 11 -38 26 8 12 46 6 51 -8z m753 -10 c0 -16 -35
-54 -50 -54 -19 0 -10 49 12 64 23 17 38 13 38 -10z m73 9 c9 -8 -22 -43 -39
-43 -22 0 -28 23 -9 37 21 14 38 17 48 6z m-762 -39 c10 -13 10 -17 -2 -25
-18 -11 -26 -11 -50 1 -10 6 -19 17 -19 25 0 20 54 20 71 -1z m769 -29 c6 -8
9 -19 5 -25 -8 -12 -45 -13 -64 -1 -12 8 -12 12 -2 25 17 20 45 21 61 1z
m-823 -32 c5 -14 -40 -28 -57 -18 -8 5 -8 11 1 21 14 17 51 15 56 -3z m811
-25 c20 -20 14 -30 -15 -26 -32 4 -46 38 -16 38 11 0 24 -5 31 -12z m-748 -20
c0 -18 -31 -48 -51 -48 -28 0 -32 17 -9 40 22 22 60 27 60 8z m693 -6 c19 -21
13 -32 -18 -32 -24 0 -45 17 -45 37 0 19 44 16 63 -5z m-110 -12 c-6 -22 -14
-24 -53 -13 -24 7 -23 8 15 19 22 7 41 13 42 13 0 1 -1 -8 -4 -19z m-553 -10
c0 -19 -11 -26 -23 -14 -8 8 3 34 14 34 5 0 9 -9 9 -20z m89 13 c23 -6 23 -7
5 -14 -31 -12 -51 -10 -58 6 -6 16 12 19 53 8z m521 -28 c10 -12 10 -15 -4
-15 -9 0 -16 7 -16 15 0 8 2 15 4 15 2 0 9 -7 16 -15z m-150 -10 c23 -12 23
-14 7 -21 -19 -7 -67 13 -67 28 0 12 32 9 60 -7z m-160 -65 c0 -5 -2 -10 -4
-10 -3 0 -8 5 -11 10 -3 6 -1 10 4 10 6 0 11 -4 11 -10z m144 -196 c10 -26 7
-34 -14 -34 -25 0 -38 29 -19 41 20 12 26 11 33 -7z"/>
<path d="M1070 1086 c-6 -8 -18 -12 -27 -9 -13 5 -13 3 -4 -15 15 -28 18 -28
36 8 17 32 15 39 -5 16z"/>
<path d="M1140 1031 c-13 -25 -13 -41 0 -21 6 10 10 11 10 3 0 -7 5 -13 11
-13 8 0 8 4 -1 15 -6 8 -9 19 -5 25 3 5 4 10 1 10 -3 0 -10 -9 -16 -19z"/>
<path d="M818 1013 c6 -2 18 -2 25 0 6 3 1 5 -13 5 -14 0 -19 -2 -12 -5z"/>
<path d="M1240 863 c-36 -12 -59 -22 -52 -22 13 -1 55 -84 55 -109 0 -10 9
-12 30 -8 17 3 32 8 34 10 2 2 3 37 1 77 l-3 74 -65 -22z"/>
<path d="M923 838 c16 -12 17 -18 5 -62 -8 -29 -20 -51 -31 -55 -13 -5 6 -14
63 -32 l80 -26 0 77 0 78 -47 11 c-27 7 -57 14 -68 17 -19 6 -19 5 -2 -8z"/>
<path d="M1326 1505 c-3 -8 -1 -15 4 -15 6 0 10 7 10 15 0 8 -2 15 -4 15 -2 0
-6 -7 -10 -15z"/>
<path d="M705 1460 c3 -5 8 -10 11 -10 2 0 4 5 4 10 0 6 -5 10 -11 10 -5 0 -7
-4 -4 -10z"/>
<path d="M618 1443 c7 -3 16 -2 19 1 4 3 -2 6 -13 5 -11 0 -14 -3 -6 -6z"/>
<path d="M650 1436 c0 -2 7 -6 15 -10 8 -3 15 -1 15 4 0 6 -7 10 -15 10 -8 0
-15 -2 -15 -4z"/>
<path d="M1446 1415 c-3 -8 -1 -15 4 -15 6 0 10 7 10 15 0 8 -2 15 -4 15 -2 0
-6 -7 -10 -15z"/>
<path d="M588 1403 c7 -3 16 -2 19 1 4 3 -2 6 -13 5 -11 0 -14 -3 -6 -6z"/>
<path d="M1491 1398 c-1 -10 -6 -18 -12 -18 -5 0 -7 -5 -3 -11 9 -15 28 16 20
34 -2 7 -5 4 -5 -5z"/>
<path d="M1528 1375 c-3 -11 -9 -29 -13 -40 -3 -11 1 -7 10 8 9 16 15 33 12
40 -2 6 -6 3 -9 -8z"/>
<path d="M558 1363 c7 -3 16 -2 19 1 4 3 -2 6 -13 5 -11 0 -14 -3 -6 -6z"/>
<path d="M1541 1301 c-8 -5 -9 -11 -3 -15 5 -3 12 1 16 9 6 17 6 18 -13 6z"/>
<path d="M1578 1269 c-9 -16 -14 -29 -9 -29 8 0 34 50 29 56 -2 1 -11 -11 -20
-27z"/>
<path d="M500 1276 c0 -2 14 -6 30 -8 17 -3 30 -1 30 4 0 4 -13 8 -30 8 -16 0
-30 -2 -30 -4z"/>
<path d="M1597 1220 c-19 -22 -22 -35 -7 -25 10 6 34 45 28 45 -2 0 -11 -9
-21 -20z"/>
<path d="M488 1223 c7 -3 16 -2 19 1 4 3 -2 6 -13 5 -11 0 -14 -3 -6 -6z"/>
<path d="M505 1180 c3 -5 8 -10 11 -10 2 0 4 5 4 10 0 6 -5 10 -11 10 -5 0 -7
-4 -4 -10z"/>
<path d="M1614 1168 l-19 -23 23 19 c21 18 27 26 19 26 -2 0 -12 -10 -23 -22z"/>
<path d="M456 1171 c-4 -5 3 -7 14 -4 23 6 26 13 6 13 -8 0 -17 -4 -20 -9z"/>
<path d="M1631 1124 c-13 -15 -17 -24 -10 -22 12 4 46 48 37 48 -2 0 -15 -12
-27 -26z"/>
<path d="M439 1113 c-13 -17 -13 -17 6 -3 11 8 22 16 24 17 2 2 0 3 -6 3 -6 0
-17 -8 -24 -17z"/>
<path d="M450 1075 c-14 -8 -20 -14 -15 -14 6 0 21 6 35 14 14 8 21 14 15 14
-5 0 -21 -6 -35 -14z"/>
<path d="M1640 1069 c-22 -18 -22 -19 -3 -10 12 6 25 16 28 21 9 15 3 12 -25
-11z"/>
<path d="M475 1030 c3 -5 8 -10 11 -10 2 0 4 5 4 10 0 6 -5 10 -11 10 -5 0 -7
-4 -4 -10z"/>
<path d="M1636 1015 c-11 -8 -16 -15 -10 -15 5 0 18 7 28 15 11 8 16 15 10 15
-5 0 -18 -7 -28 -15z"/>
<path d="M449 969 l-24 -20 26 15 c14 9 29 13 32 9 4 -3 7 -1 7 5 0 18 -15 15
-41 -9z"/>
<path d="M1645 969 c-16 -10 -25 -19 -19 -19 7 0 22 9 35 20 30 24 23 24 -16
-1z"/>
<path d="M449 913 l-24 -28 30 25 c17 14 32 26 34 28 2 1 0 2 -6 2 -5 0 -20
-12 -34 -27z"/>
<path d="M1656 925 c-11 -8 -15 -15 -9 -15 6 0 16 7 23 15 16 19 11 19 -14 0z"/>
<path d="M1610 910 c0 -5 5 -10 11 -10 5 0 7 5 4 10 -3 6 -8 10 -11 10 -2 0
-4 -4 -4 -10z"/>
<path d="M464 868 l-19 -23 25 20 c14 11 27 21 29 22 2 2 0 3 -6 3 -5 0 -18
-10 -29 -22z"/>
<path d="M1637 869 c-9 -5 -22 -7 -27 -4 -6 3 -10 1 -10 -4 0 -6 6 -11 13 -11
15 1 66 29 52 29 -5 0 -18 -4 -28 -10z"/>
<path d="M476 815 c-9 -14 -15 -25 -13 -25 2 0 13 11 25 25 12 14 18 25 13 25
-5 0 -16 -11 -25 -25z"/>
<path d="M1590 810 c0 -5 5 -10 11 -10 5 0 7 5 4 10 -3 6 -8 10 -11 10 -2 0
-4 -4 -4 -10z"/>
<path d="M496 767 c-13 -24 -13 -27 -2 -13 9 11 21 23 27 27 6 4 7 9 2 12 -5
3 -17 -8 -27 -26z"/>
<path d="M1610 770 c-23 -7 -23 -8 -3 -9 12 -1 25 4 28 9 3 6 5 10 3 9 -2 -1
-14 -5 -28 -9z"/>
<path d="M520 729 c-7 -11 -9 -23 -7 -26 3 -2 8 5 12 16 3 12 11 19 16 16 5
-4 9 -1 9 4 0 18 -19 12 -30 -10z"/>
<path d="M1550 719 c0 -5 11 -9 25 -9 14 0 25 2 25 4 0 2 -11 6 -25 8 -14 3
-25 1 -25 -3z"/>
<path d="M546 681 c-23 -43 -20 -52 5 -12 11 18 18 35 15 38 -2 3 -12 -9 -20
-26z"/>
<path d="M1558 673 c6 -2 18 -2 25 0 6 3 1 5 -13 5 -14 0 -19 -2 -12 -5z"/>
<path d="M571 624 c0 -11 3 -14 6 -6 3 7 2 16 -1 19 -3 4 -6 -2 -5 -13z"/>
<path d="M606 594 c-10 -37 -2 -39 11 -4 6 17 8 30 3 30 -4 0 -11 -12 -14 -26z"/>
<path d="M1498 583 c7 -3 16 -2 19 1 4 3 -2 6 -13 5 -11 0 -14 -3 -6 -6z"/>
<path d="M1425 570 c-3 -6 1 -13 10 -16 21 -9 26 -2 10 13 -9 8 -16 9 -20 3z"/>
<path d="M642 545 c0 -16 2 -22 5 -12 2 9 2 23 0 30 -3 6 -5 -1 -5 -18z"/>
<path d="M684 536 c-3 -14 -4 -31 -1 -38 3 -7 6 -1 6 14 1 14 6 28 13 30 9 3
9 6 0 12 -7 4 -14 -2 -18 -18z"/>
<path d="M1394 525 c11 -8 27 -15 35 -15 9 0 3 7 -13 15 -36 19 -47 19 -22 0z"/>
<path d="M1354 496 c11 -9 24 -16 30 -16 12 0 7 5 -24 19 -24 11 -24 11 -6 -3z"/>
<path d="M770 470 c0 -16 2 -30 4 -30 2 0 6 14 8 30 3 17 1 30 -4 30 -4 0 -8
-13 -8 -30z"/>
<path d="M1300 481 c0 -13 39 -35 48 -27 3 3 0 6 -6 6 -6 0 -18 7 -26 16 -9 8
-16 11 -16 5z"/>
<path d="M810 469 c0 -5 5 -7 10 -4 6 3 10 8 10 11 0 2 -4 4 -10 4 -5 0 -10
-5 -10 -11z"/>
<path d="M1257 462 c-3 -4 8 -17 26 -27 18 -10 25 -12 17 -4 -8 8 -20 20 -27
27 -6 7 -14 9 -16 4z"/>
<path d="M865 433 c3 -16 11 -32 16 -38 6 -6 6 1 0 18 -6 16 -9 33 -5 38 3 5
0 9 -6 9 -8 0 -10 -9 -5 -27z"/>
<path d="M821 434 c0 -11 3 -14 6 -6 3 7 2 16 -1 19 -3 4 -6 -2 -5 -13z"/>
<path d="M1210 434 c8 -8 23 -20 34 -26 16 -8 15 -4 -6 16 -30 28 -48 35 -28
10z"/>
<path d="M1160 433 c0 -5 10 -18 23 -29 l22 -19 -20 25 c-11 14 -21 27 -22 29
-2 2 -3 0 -3 -6z"/>
<path d="M961 425 c0 -5 6 -21 14 -35 8 -14 14 -20 14 -15 0 6 -6 21 -14 35
-8 14 -14 21 -14 15z"/>
<path d="M1010 419 c0 -5 5 -7 10 -4 6 3 10 8 10 11 0 2 -4 4 -10 4 -5 0 -10
-5 -10 -11z"/>
<path d="M1060 423 c0 -6 9 -21 21 -34 l20 -24 -17 30 c-24 39 -24 40 -24 28z"/>
<path d="M1120 405 c13 -14 25 -25 27 -25 9 0 -33 49 -41 50 -5 0 1 -11 14
-25z"/>
<path d="M920 401 c0 -6 4 -13 10 -16 6 -3 7 1 4 9 -7 18 -14 21 -14 7z"/>
<path d="M1026 387 c3 -10 9 -15 12 -12 3 3 0 11 -7 18 -10 9 -11 8 -5 -6z"/>
<path d="M800 194 c0 -22 2 -25 15 -14 8 7 15 19 15 26 0 8 -7 14 -15 14 -10
0 -15 -10 -15 -26z"/>
<path d="M1348 1953 c7 -3 16 -2 19 1 4 3 -2 6 -13 5 -11 0 -14 -3 -6 -6z"/>
<path d="M1460 1922 c8 -5 26 -13 40 -16 17 -5 20 -4 10 2 -8 5 -26 13 -40 16
-17 5 -20 4 -10 -2z"/>
<path d="M1625 1847 c107 -57 176 -101 231 -149 34 -30 34 -31 17 -52 -17 -20
-16 -20 6 1 l24 21 -29 26 c-47 43 -184 131 -261 170 -110 55 -101 43 12 -17z"/>
<path d="M953 1713 c9 -2 23 -2 30 0 6 3 -1 5 -18 5 -16 0 -22 -2 -12 -5z"/>
<path d="M1123 1713 c9 -2 25 -2 35 0 9 3 1 5 -18 5 -19 0 -27 -2 -17 -5z"/>
<path d="M878 1703 c7 -3 16 -2 19 1 4 3 -2 6 -13 5 -11 0 -14 -3 -6 -6z"/>
<path d="M1218 1703 c7 -3 16 -2 19 1 4 3 -2 6 -13 5 -11 0 -14 -3 -6 -6z"/>
<path d="M1268 1693 c7 -3 16 -2 19 1 4 3 -2 6 -13 5 -11 0 -14 -3 -6 -6z"/>
<path d="M630 1630 c-8 -5 -10 -10 -5 -10 6 0 17 5 25 10 8 5 11 10 5 10 -5 0
-17 -5 -25 -10z"/>
<path d="M1471 1626 c10 -9 69 -36 69 -32 0 6 -55 36 -66 36 -4 0 -5 -2 -3 -4z"/>
<path d="M62 1521 c-10 -6 -2 -13 27 -25 23 -9 47 -16 54 -15 6 0 -4 6 -23 14
-19 7 -34 18 -32 24 2 13 -8 14 -26 2z"/>
<path d="M168 1473 c6 -2 18 -2 25 0 6 3 1 5 -13 5 -14 0 -19 -2 -12 -5z"/>
<path d="M223 1463 c9 -2 23 -2 30 0 6 3 -1 5 -18 5 -16 0 -22 -2 -12 -5z"/>
<path d="M1878 1463 c7 -3 16 -2 19 1 4 3 -2 6 -13 5 -11 0 -14 -3 -6 -6z"/>
<path d="M190 1340 c-6 -11 -8 -20 -6 -20 3 0 10 9 16 20 6 11 8 20 6 20 -3 0
-10 -9 -16 -20z"/>
<path d="M1933 1295 c0 -8 7 -15 15 -15 12 0 12 3 2 15 -7 8 -13 15 -15 15 -1
0 -2 -7 -2 -15z"/>
<path d="M272 1160 c0 -14 2 -19 5 -12 2 6 2 18 0 25 -3 6 -5 1 -5 -13z"/>
<path d="M1831 1164 c0 -11 3 -14 6 -6 3 7 2 16 -1 19 -3 4 -6 -2 -5 -13z"/>
<path d="M281 1104 c0 -11 3 -14 6 -6 3 7 2 16 -1 19 -3 4 -6 -2 -5 -13z"/>
<path d="M281 914 c0 -11 3 -14 6 -6 3 7 2 16 -1 19 -3 4 -6 -2 -5 -13z"/>
<path d="M271 864 c0 -11 3 -14 6 -6 3 7 2 16 -1 19 -3 4 -6 -2 -5 -13z"/>
<path d="M1831 854 c0 -11 3 -14 6 -6 3 7 2 16 -1 19 -3 4 -6 -2 -5 -13z"/>
<path d="M304 795 c-3 -8 -4 -20 -2 -27 3 -7 7 -1 10 15 6 29 1 36 -8 12z"/>
<path d="M1800 776 c0 -7 -9 -26 -21 -42 l-21 -29 26 28 c23 25 35 57 21 57
-3 0 -5 -6 -5 -14z"/>
<path d="M319 737 c15 -19 71 -61 71 -54 0 2 -19 19 -42 37 -24 19 -37 26 -29
17z"/>
<path d="M285 710 c10 -11 20 -20 23 -20 3 0 -3 9 -13 20 -10 11 -20 20 -23
20 -3 0 3 -9 13 -20z"/>
<path d="M1715 684 l-30 -26 33 22 c17 12 32 23 32 26 0 7 -4 5 -35 -22z"/>
<path d="M400 676 c0 -2 8 -10 18 -17 15 -13 16 -12 3 4 -13 16 -21 21 -21 13z"/>
<path d="M1659 643 c-13 -16 -12 -17 4 -4 16 13 21 21 13 21 -2 0 -10 -8 -17
-17z"/>
<path d="M440 646 c0 -2 8 -10 18 -17 15 -13 16 -12 3 4 -13 16 -21 21 -21 13z"/>
<path d="M407 532 c15 -28 29 -49 31 -47 5 5 -37 83 -48 90 -6 4 2 -16 17 -43z"/>
<path d="M1712 568 c-14 -19 -44 -79 -40 -83 2 -2 15 19 31 46 26 47 30 62 9
37z"/>
<path d="M1553 483 c4 -3 -3 -18 -15 -32 l-23 -25 31 25 c30 23 35 39 12 39
-6 0 -8 -3 -5 -7z"/>
<path d="M570 476 c0 -3 9 -10 20 -16 11 -6 20 -8 20 -6 0 3 -9 10 -20 16 -11
6 -20 8 -20 6z"/>
<path d="M1726 395 c-32 -13 -60 -26 -64 -29 -3 -3 -15 2 -26 11 -18 15 -18
14 2 -8 l22 -26 48 22 c26 12 58 27 71 32 14 5 20 12 15 16 -5 3 -36 -5 -68
-18z"/>
</g>
</svg>
